# AST/ASF file generated using VICON BodyLanguage
# -----------------------------------------------
:version 1.10
:name VICON
:units
  mass 1.0
  length 0.45
  angle deg
:documentation
   .ast/.asf automatically generated from VICON data using
   VICON BodyBuilder and BodyLanguage model FoxedUp or BRILLIANT.MOD
:root
   order TX TY TZ RX RY RZ
   axis XYZ
   position 0 0 0  
   orientation 0 0 0 
:bonedata
  begin
     id 1 
     name lhipjoint
     direction 0.702568 -0.596508 0.388042 
     length 2.56661 
     axis 0 0 0  XYZ
  end
  begin
     id 2 
     name lfemur
     direction 0.34202 -0.939693 0  
     length 6.58374  
     axis 0 0 20  XYZ
    dof rx ry rz
    limits (-160.0 20.0)
           (-70.0 70.0)
           (-60.0 70.0)
  end
  begin
     id 3 
     name ltibia
     direction 0.34202 -0.939693 0   
     length 6.62538   
     axis 0 0 20   XYZ
    dof rx
    limits (-10.0 170.0)
  end
  begin
     id 4 
     name lfoot
     direction 0.10455 -0.287249 0.952133   
     length 2.26699   
     axis -90 7.62852e-016 20   XYZ
    dof rx rz
    limits (-45.0 90.0)
           (-70.0 20.0)
  end
  begin
     id 5 
     name ltoes
     direction 1.53572e-011 -4.22322e-011 1   
     length 1.12949   
     axis -90 7.62852e-016 20   XYZ
    dof rx
    limits (-90.0 20.0)
  end
  begin
     id 6 
     name rhipjoint
     direction -0.728055 -0.574632 0.373811   
     length 2.66432  
     axis 0 0 0  XYZ 
  end
  begin
     id 7 
     name rfemur
     direction -0.34202 -0.939693 0   
     length 6.66732   
     axis 0 0 -20   XYZ
    dof rx ry rz
    limits (-160.0 20.0)
           (-70.0 70.0)
           (-70.0 60.0)
  end
  begin
     id 8 
     name rtibia
     direction -0.34202 -0.939693 0   
     length 6.59288   
     axis 0 0 -20   XYZ
    dof rx
    limits (-10.0 170.0)
 end
 begin
     id 9 
     name rfoot
     direction -0.119193 -0.327479 0.93731   
     length 2.38061  
     axis -90 -7.62852e-016 -20   XYZ
    dof rx rz
    limits (-45.0 90.0)
           (-20.0 70.0)
  end
  begin
     id 10 
     name rtoes
     direction -1.53547e-011 -4.21827e-011 1   
     length 1.17899   
     axis -90 -7.62852e-016 -20   XYZ
    dof rx
    limits (-90.0 20.0)
  end
  begin
     id 11 
     name lowerback
     direction -0.000416114 0.999912 -0.0132284   
     length 2.12109   
     axis 0 0 0   XYZ
    dof rx ry rz
    limits (-20.0 45.0)
           (-30.0 30.0)
           (-30.0 30.0)
  end
  begin
     id 12 
     name upperback
     direction -0.00136371 0.99809 0.0617608   
     length 2.10067   
     axis 0 0 0   XYZ
    dof rx ry rz
    limits (-20.0 45.0)
           (-30.0 30.0)
           (-30.0 30.0)
  end
  begin
     id 13 
     name thorax
     direction -3.43026e-005 0.997776 0.0666515   
     length 2.10618   
     axis 0 0 0   XYZ
    dof rx ry rz
    limits (-20.0 45.0)
           (-30.0 30.0)
           (-30.0 30.0)
  end
  begin
     id 14 
     name lowerneck
     direction 0.0398646 0.998418 0.0396592   
     length 1.83817   
     axis 0 0 0   XYZ
    dof rx ry rz
    limits (-20.0 45.0)
           (-30.0 30.0)
           (-30.0 30.0)
  end
  begin
     id 15 
     name upperneck
     direction -0.0367268 0.961527 -0.272244   
     length 1.81975   
     axis 0 0 0   XYZ
    dof rx ry rz
    limits (-20.0 45.0)
           (-30.0 30.0)
           (-30.0 30.0)
  end
  begin
     id 16
     name head
     direction -0.0182665 0.99536 -0.0944669  
     length 1.86026  
     axis 0 0 0   XYZ
    dof rx ry rz
    limits (-20.0 45.0)
           (-30.0 30.0)
           (-30.0 30.0)
  end
  begin
     id 17 
     name lclavicle
     direction 0.924239 0.361045 0.124212  
     length 3.26878  
     axis 0 0 0   XYZ
    dof ry rz
    limits (-20.0 10.0)
           (0.0 20.0)
  end
  begin
     id 18 
     name lhumerus
     direction 1 -4.48968e-011 -2.56583e-027   
     length 4.58538   
     axis 180 -30 -90   XYZ
    dof rx ry rz
    limits (-60.0 90.0)
           (-90.0 90.0)
           (-90.0 90.0)
  end
  begin
     id 19
     name lradius
     direction 1 -4.4898e-011 -5.50375e-027   
     length 2.68935   
     axis 180 -30 -90   XYZ
    dof rx
    limits (-10.0 170.0)
  end
  begin
     id 20
     name lwrist
     direction 1 -4.48939e-011 -1.48955e-026   
     length 1.34468   
     axis 9.0955e-015 90 90   XYZ
    dof ry
    limits (-180.0 0.0)
 end
  begin
     id 21 
     name lhand
     direction 1 -4.48936e-011 -2.97907e-026   
     length 0.585058   
     axis 1.90115e-014 90 90   XYZ
    dof rx rz
    limits (-90.0 90.0)
           (-45.0 45.0)
  end
  begin
     id 22 
     name lfingers
     direction 1 -4.49082e-011 -5.96235e-026   
     length 0.471689   
     axis 3.80223e-014 90 90   XYZ
    dof rx
    limits (0.0 90.0)
  end
  begin
     id 23
     name lthumb
     direction 0.707107 -6.3489e-011 0.707107   
     length 0.677253   
     axis -90 45 -3.84942e-014   XYZ
    dof rx rz
    limits (-45.0 45.0)
           (-45.0 45.0)
  end
  begin
     id 24 
     name rclavicle
     direction -0.923098 0.371783 0.0983239   
     length 3.19656  
     axis 0 0 0   XYZ 
    dof ry rz
    limits (-10.0 20.0)
           (-20.0 0.0)
  end
  begin
     id 25 
     name rhumerus
     direction -1 -4.48976e-011 -2.5492e-027  
     length 4.4745   
     axis 180 30 90   XYZ
    dof rx ry rz
    limits (-90.0 60.0)
           (-90.0 90.0)
           (-90.0 90.0)
  end
  begin
     id 26 
     name rradius
     direction -1 -4.48941e-011 -4.36555e-027   
     length 2.93896   
     axis 180 30 90   XYZ
    dof rx
    limits (-10.0 170.0)
  end
  begin
     id 27 
     name rwrist
     direction -1 -4.49044e-011 -1.49032e-026   
     length 1.46948   
     axis 9.0955e-015 -90 -90   XYZ
    dof ry
    limits (-180.0 0.0)
  end
  begin
     id 28
     name rhand
     direction -1 -4.48826e-011 -2.97749e-026   
     length 0.405092   
     axis 1.90115e-014 -90 -90   XYZ
    dof rx rz
    limits (-90.0 90.0)
           (-45.0 45.0)
  end
  begin
     id 29
     name rfingers
     direction -1 -4.49209e-011 -5.96602e-026   
     length 0.326596   
     axis 3.80223e-014 -90 -90   XYZ
    dof rx
    limits (0.0 90.0)
  end
  begin
     id 30
     name rthumb
     direction -0.707107 -6.34776e-011 0.707107   
     length 0.468928   
     axis -90 -45 3.84942e-014   XYZ
    dof rx rz
    limits (-45.0 45.0)
           (-45.0 45.0)
  end
:hierarchy
  begin
    root lhipjoint rhipjoint lowerback
    lhipjoint lfemur
    lfemur ltibia
    ltibia lfoot
    lfoot ltoes
    rhipjoint rfemur
    rfemur rtibia
    rtibia rfoot
    rfoot rtoes
    lowerback upperback
    upperback thorax
    thorax lowerneck lclavicle rclavicle
    lowerneck upperneck
    upperneck head
    lclavicle lhumerus
    lhumerus lradius
    lradius lwrist
    lwrist lhand lthumb
    lhand lfingers
    rclavicle rhumerus
    rhumerus rradius
    rradius rwrist
    rwrist rhand rthumb
    rhand rfingers
  end

#!OML:ASF H:\Punching\Project 1\Capture day 1\Session 1\female.ASF
:FULLY-SPECIFIED
:DEGREES
1
root -1.76933 16.03 3.04301 7.00812 -10.0845 2.23675
lowerback -0.382033 -3.09726 12.5697
upperback -3.55644 -3.83064 3.28377
thorax -4.15055 -2.25634 -3.40814
lowerneck -5.4083 9.12859 11.1671
upperneck 40.1589 16.8649 -13.713
head 18.4219 7.1772 -5.47503
rclavicle 3.56818e-014 -2.54444e-014
rhumerus -43.8836 -9.68037 -54.9687
rradius 27.4461
rwrist 5.45961
rhand -14.3954 -9.26576
rfingers 7.12502
rthumb 11.7479 -38.9163
lclavicle 3.56818e-014 -2.54444e-014
lhumerus -43.9809 -2.25025 88.7701
lradius 68.1375
lwrist -8.56744
lhand -0.886861 11.4183
lfingers 7.12502
lthumb 24.7406 39.8384
rfemur -12.9585 9.17762 21.0913
rtibia 20.8961
rfoot -12.2031 -17.8736
rtoes 5.3657
lfemur -26.154 -2.06628 -10.4709
ltibia 34.9374
lfoot -4.91493 11.4008
ltoes -2.27516
2
root -1.75092 16.0239 3.05489 7.1142 -9.95371 2.0397
lowerback -0.41602 -3.05187 12.541
upperback -3.5189 -3.78064 3.26185
thorax -4.08232 -2.22643 -3.4226
lowerneck -5.4743 9.08436 11.1717
upperneck 40.2161 16.7403 -13.5692
head 18.4206 7.1366 -5.43059
rclavicle 2.26615e-014 -1.27222e-014
rhumerus -43.7613 -9.64902 -55.3848
rradius 27.7327
rwrist 5.0674
rhand -14.4677 -9.28936
rfingers 7.12502
rthumb 11.6781 -38.9439
lclavicle 2.26615e-014 -1.27222e-014
lhumerus -44.1228 -2.10457 88.8532
lradius 67.0734
lwrist -8.81534
lhand -0.986023 11.5557
lfingers 7.12502
lthumb 24.6456 39.9887
rfemur -13.0262 9.08333 21.2229
rtibia 20.959
rfoot -12.229 -17.878
rtoes 5.16251
lfemur -25.7298 -2.11255 -10.4267
ltibia 34.9739
lfoot -5.41595 11.3968
ltoes -2.62819
3
root -1.7322 16.0182 3.06711 7.21106 -9.82647 1.87678
lowerback -0.460568 -3.0234 12.4426
upperback -3.50001 -3.75364 3.26125
thorax -4.02453 -2.20661 -3.37549
lowerneck -5.43119 9.02469 11.1645
upperneck 40.2579 16.6169 -13.4769
head 18.3885 7.0953 -5.41334
rclavicle 4.26393e-014 -3.18055e-015
rhumerus -43.6162 -9.60906 -55.7566
rradius 28.0024
rwrist 4.77553
rhand -14.5199 -9.47153
rfingers 7.12502
rthumb 11.6278 -39.1289
lclavicle 4.26393e-014 -3.18055e-015
lhumerus -44.3001 -1.91985 88.9267
lradius 65.955
lwrist -9.01043
lhand -1.17866 11.6441
lfingers 7.12502
lthumb 24.461 40.1023
rfemur -13.0884 8.92083 21.3204
rtibia 21.031
rfoot -12.309 -17.8219
rtoes 5.14182
lfemur -25.2639 -2.20099 -10.4067
ltibia 34.8411
lfoot -5.97756 11.5031
ltoes -2.04693
4
root -1.71152 16.0114 3.07914 7.29644 -9.67274 1.68314
lowerback -0.464829 -2.99309 12.3993
upperback -3.47245 -3.71795 3.24126
thorax -3.985 -2.18505 -3.37674
lowerneck -5.46451 8.97314 11.1764
upperneck 40.3012 16.4866 -13.3529
head 18.3734 7.05335 -5.38173
rclavicle -7.15625e-015 -2.8625e-014
rhumerus -43.7036 -8.30512 -56.9674
rradius 29.0092
rwrist 3.03866
rhand -14.6174 -9.86665
rfingers 7.12502
rthumb 11.5338 -39.5293
lclavicle -7.15625e-015 -2.8625e-014
lhumerus -44.4498 -1.75812 88.8821
lradius 64.8125
lwrist -9.14006
lhand -1.32589 11.6472
lfingers 7.12502
lthumb 24.3198 40.1243
rfemur -13.1355 8.79963 21.4433
rtibia 21.1174
rfoot -12.3887 -17.8089
rtoes 5.05554
lfemur -24.8737 -2.40802 -10.3239
ltibia 34.6868
lfoot -6.36258 11.6481
ltoes -2.77912
5
root -1.69117 16.0044 3.09151 7.38971 -9.53255 1.50373
lowerback -0.49302 -2.95443 12.3402
upperback -3.44203 -3.67559 3.2186
thorax -3.92673 -2.15881 -3.37413
lowerneck -5.4832 8.91556 11.1916
upperneck 40.3412 16.3497 -13.2378
head 18.3533 7.00925 -5.35679
rclavicle 1.42131e-014 1.74931e-014
rhumerus -43.6272 -7.94388 -57.6082
rradius 29.5054
rwrist 2.3494
rhand -14.6851 -10.0232
rfingers 7.12502
rthumb 11.4685 -39.6895
lclavicle 1.42131e-014 1.74931e-014
lhumerus -44.5976 -1.58631 88.8408
lradius 63.702
lwrist -9.24996
lhand -1.45435 11.7177
lfingers 7.12502
lthumb 24.1967 40.2113
rfemur -13.2093 8.66449 21.5511
rtibia 21.2285
rfoot -12.4827 -17.7797
rtoes 4.97074
lfemur -24.4297 -2.57072 -10.267
ltibia 34.4513
lfoot -6.805 11.7893
ltoes -3.0112
6
root -1.67031 15.9973 3.10282 7.50444 -9.36067 1.33426
lowerback -0.535747 -2.91975 12.2713
upperback -3.42221 -3.64 3.19219
thorax -3.87213 -2.13632 -3.37003
lowerneck -5.50073 8.85276 11.2075
upperneck 40.3824 16.2022 -13.1168
head 18.3305 6.96159 -5.33132
rclavicle 5.18828e-014 9.54166e-015
rhumerus -43.5345 -7.66386 -58.2235
rradius 29.9687
rwrist 1.75099
rhand -14.7439 -10.1484
rfingers 7.12502
rthumb 11.4117 -39.8178
lclavicle 5.18828e-014 9.54166e-015
lhumerus -44.743 -1.41232 88.7551
lradius 62.5957
lwrist -9.30227
lhand -1.55871 11.7954
lfingers 7.12502
lthumb 24.0966 40.3023
rfemur -13.3178 8.52611 21.6434
rtibia 21.358
rfoot -12.5869 -17.7759
rtoes 4.90004
lfemur -24.024 -2.77812 -10.2097
ltibia 34.138
lfoot -7.22471 11.954
ltoes -3.27516
7
root -1.6489 15.9902 3.11307 7.64128 -9.15528 1.17137
lowerback -0.590212 -2.89037 12.1966
upperback -3.41351 -3.61234 3.16314
thorax -3.82374 -2.11838 -3.36516
lowerneck -5.51939 8.7867 11.225
upperneck 40.4257 16.0465 -12.9889
head 18.307 6.91154 -5.30436
rclavicle 7.14631e-014 1.59028e-014
rhumerus -43.3869 -7.61455 -58.731
rradius 30.3018
rwrist 1.40585
rhand -14.7748 -10.1573
rfingers 7.12502
rthumb 11.3819 -39.8284
lclavicle 7.14631e-014 1.59028e-014
lhumerus -44.8869 -1.23249 88.6239
lradius 61.503
lwrist -9.29561
lhand -1.63344 11.8969
lfingers 7.12502
lthumb 24.0249 40.4132
rfemur -13.4633 8.38916 21.724
rtibia 21.509
rfoot -12.6966 -17.8041
rtoes 4.83004
lfemur -23.6695 -3.0363 -10.147
ltibia 33.7744
lfoot -7.6333 12.1395
ltoes -3.55074
8
root -1.62691 15.9836 3.12225 7.80422 -8.92113 1.01069
lowerback -0.660476 -2.86323 12.121
upperback -3.41762 -3.58886 3.13259
thorax -3.78077 -2.10329 -3.3614
lowerneck -5.5344 8.71408 11.2384
upperneck 40.4762 15.8772 -12.8481
head 18.2817 6.85674 -5.27364
rclavicle -4.26393e-014 4.92986e-014
rhumerus -43.1713 -7.84647 -59.1033
rradius 30.4671
rwrist 1.36715
rhand -14.7678 -10.0393
rfingers 7.12502
rthumb 11.3887 -39.71
lclavicle -4.26393e-014 4.92986e-014
lhumerus -45.0299 -1.04971 88.4511
lradius 60.4243
lwrist -9.2341
lhand -1.67892 12.0234
lfingers 7.12502
lthumb 23.9813 40.5455
rfemur -13.6427 8.2542 21.7974
rtibia 21.6638
rfoot -12.7989 -17.8614
rtoes 4.76288
lfemur -23.3661 -3.34529 -10.0731
ltibia 33.3565
lfoot -8.03451 12.3473
ltoes -3.76002
9
root -1.60408 15.9776 3.13091 7.98122 -8.66654 0.851851
lowerback -0.737074 -2.84107 12.0426
upperback -3.42919 -3.57215 3.10399
thorax -3.74287 -2.09199 -3.35369
lowerneck -5.55031 8.63884 11.2448
upperneck 40.5352 15.7017 -12.697
head 18.2586 6.79942 -5.23826
rclavicle -5.89397e-014 5.56597e-014
rhumerus -42.9568 -8.01797 -59.5233
rradius 30.6724
rwrist 1.27537
rhand -14.7441 -9.93148
rfingers 7.12502
rthumb 11.4116 -39.6009
lclavicle -5.89397e-014 5.56597e-014
lhumerus -45.1687 -0.849658 88.2375
lradius 59.3585
lwrist -9.1371
lhand -1.69501 12.1676
lfingers 7.12502
lthumb 23.9659 40.6917
rfemur -13.8341 8.12148 21.8647
rtibia 21.8079
rfoot -12.8856 -17.942
rtoes 4.69009
lfemur -23.1028 -3.71084 -9.98857
ltibia 32.903
lfoot -8.42446 12.5819
ltoes -3.92444
10
root -1.5804 15.9719 3.13956 8.15415 -8.4098 0.686075
lowerback -0.804493 -2.81959 11.969
upperback -3.44236 -3.55447 3.07884
thorax -3.71194 -2.08066 -3.34433
lowerneck -5.55966 8.55987 11.2411
upperneck 40.6034 15.5199 -12.5357
head 18.2358 6.73928 -5.19813
rclavicle 5.45664e-014 -2.54444e-014
rhumerus -42.7055 -8.29839 -59.8913
rradius 30.8086
rwrist 1.32985
rhand -14.68 -9.74214
rfingers 7.12502
rthumb 11.4734 -39.4082
lclavicle 5.45664e-014 -2.54444e-014
lhumerus -45.3075 -0.628742 87.9834
lradius 58.3029
lwrist -9.0376
lhand -1.72172 12.2881
lfingers 7.12502
lthumb 23.9403 40.8156
rfemur -14.0131 7.99343 21.9381
rtibia 21.9323
rfoot -12.9524 -18.0327
rtoes 4.60398
lfemur -22.8563 -4.1223 -9.887
ltibia 32.4335
lfoot -8.82774 12.8428
ltoes -3.97154
11
root -1.55573 15.9666 3.14843 8.31757 -8.15345 0.51553
lowerback -0.864475 -2.79846 11.8991
upperback -3.44869 -3.5365 3.05548
thorax -3.6781 -2.06886 -3.33493
lowerneck -5.57241 8.4778 11.2295
upperneck 40.6772 15.3328 -12.3691
head 18.2153 6.67627 -5.15521
rclavicle -7.524e-014 -3.81667e-014
rhumerus -42.4743 -8.41746 -60.3585
rradius 31.0548
rwrist 1.24136
rhand -14.6099 -9.62537
rfingers 7.12502
rthumb 11.541 -39.2876
lclavicle -7.524e-014 -3.81667e-014
lhumerus -45.432 -0.388252 87.6895
lradius 57.2606
lwrist -8.95917
lhand -1.75147 12.3942
lfingers 7.12502
lthumb 23.9117 40.9254
rfemur -14.171 7.86735 22.0152
rtibia 22.0348
rfoot -13.0038 -18.1272
rtoes 4.51442
lfemur -22.6236 -4.56528 -9.77661
ltibia 31.967
lfoot -9.26159 13.1183
ltoes -3.94805
12
root -1.53003 15.9613 3.15758 8.4616 -7.89579 0.348084
lowerback -0.911285 -2.77718 11.8274
upperback -3.44592 -3.51705 3.02974
thorax -3.6419 -2.05585 -3.32674
lowerneck -5.587 8.39086 11.2115
upperneck 40.7591 15.1378 -12.1965
head 18.1975 6.60963 -5.11017
rclavicle -4.81059e-014 5.24792e-014
rhumerus -42.2842 -8.3384 -60.9371
rradius 31.4434
rwrist 0.97545
rhand -14.5356 -9.59455
rfingers 7.12502
rthumb 11.6126 -39.2528
lclavicle -4.81059e-014 5.24792e-014
lhumerus -45.542 -0.135572 87.3579
lradius 56.2342
lwrist -8.92268
lhand -1.78036 12.4846
lfingers 7.12502
lthumb 23.884 41.0195
rfemur -14.3002 7.73733 22.0887
rtibia 22.1224
rfoot -13.0496 -18.2238
rtoes 4.41902
lfemur -22.3964 -5.02876 -9.67197
ltibia 31.5186
lfoot -9.75958 13.3965
ltoes -3.84802
13
root -1.50319 15.9555 3.16712 8.58481 -7.64661 0.177795
lowerback -0.944013 -2.75426 11.7579
upperback -3.43092 -3.49422 3.00407
thorax -3.6004 -2.0405 -3.31947
lowerneck -5.60467 8.30177 11.1861
upperneck 40.8481 14.9403 -12.0207
head 18.184 6.54112 -5.06298
rclavicle -1.6201e-014 -1.11319e-014
rhumerus -42.1182 -8.12564 -61.5879
rradius 31.9358
rwrist 0.603903
rhand -14.4682 -9.62098
rfingers 7.12502
rthumb 11.6776 -39.2755
lclavicle -1.6201e-014 -1.11319e-014
lhumerus -45.6356 0.138355 86.9881
lradius 55.2269
lwrist -8.95281
lhand -1.79859 12.5592
lfingers 7.12502
lthumb 23.8666 41.0964
rfemur -14.404 7.61015 22.1636
rtibia 22.2057
rfoot -13.0964 -18.315
rtoes 4.31502
lfemur -22.1644 -5.48513 -9.57596
ltibia 31.0989
lfoot -10.3292 13.6714
ltoes -3.77702
14
root -1.47534 15.9494 3.17606 8.69957 -7.38257 0.0166265
lowerback -0.967754 -2.73262 11.6799
upperback -3.41412 -3.4719 2.97649
thorax -3.5617 -2.02527 -3.30907
lowerneck -5.6191 8.20543 11.1512
upperneck 40.9481 14.7323 -11.8386
head 18.1731 6.46785 -5.0138
rclavicle 3.47873e-014 -6.36111e-015
rhumerus -41.9928 -7.781 -62.3022
rradius 32.5401
rwrist 0.121745
rhand -14.4171 -9.66142
rfingers 7.12502
rthumb 11.7269 -39.3132
lclavicle 3.47873e-014 -6.36111e-015
lhumerus -45.7137 0.425335 86.5846
lradius 54.2227
lwrist -9.07986
lhand -1.78969 12.5935
lfingers 7.12502
lthumb 23.8751 41.1295
rfemur -14.5027 7.4897 22.2257
rtibia 22.2955
rfoot -13.1519 -18.4256
rtoes 4.21922
lfemur -21.9521 -5.92573 -9.50293
ltibia 30.7124
lfoot -10.9596 13.9305
ltoes -3.80172
15
root -1.44646 15.9432 3.1841 8.81989 -7.09838 -0.13406
lowerback -0.991143 -2.71453 11.5909
upperback -3.40118 -3.45392 2.94871
thorax -3.5272 -2.01223 -3.29247
lowerneck -5.63382 8.10473 11.1102
upperneck 41.0621 14.5189 -11.6525
head 18.1695 6.39197 -4.96341
rclavicle 3.27995e-015 2.06736e-014
rhumerus -41.8668 -7.45764 -62.9974
rradius 33.1497
rwrist -0.301621
rhand -14.3792 -9.59113
rfingers 7.12502
rthumb 11.7635 -39.2408
lclavicle 3.27995e-015 2.06736e-014
lhumerus -45.7809 0.727735 86.1507
lradius 53.2238
lwrist -9.32736
lhand -1.75848 12.5998
lfingers 7.12502
lthumb 23.905 41.1319
rfemur -14.6154 7.38021 22.2715
rtibia 22.3971
rfoot -13.2151 -18.5635
rtoes 4.12692
lfemur -21.7756 -6.34304 -9.45319
ltibia 30.3615
lfoot -11.6249 14.1753
ltoes -3.89049
